<?xml version="1.0" standalone="no"?>
 <!DOCTYPE svg PUBLIC "-//W3C//DTD SVG 1.1//EN" 
 "http://www.w3.org/Graphics/SVG/1.1/DTD/svg11.dtd"> 
<svg xmlns="http://www.w3.org/2000/svg" version="1.1" 
    width="7.59206cm" height="8.12546cm" viewBox="0 0 29890 31990 ">
<title>SVG Picture created as Motion_Detection-Edge.Cuts.svg date 2017/11/18 02:34:49 </title>
  <desc>Picture generated by PCBNEW </desc>
<g style="fill:#000000; fill-opacity:1;stroke:#000000; stroke-opacity:1;
stroke-linecap:round; stroke-linejoin:round; "
 transform="translate(0 0) scale(1 1)">
</g>
<g style="fill:#000000; fill-opacity:0.0; 
stroke:#000000; stroke-width:-0.000393701; stroke-opacity:1; 
stroke-linecap:round; stroke-linejoin:round;">
</g>
<g style="fill:#000000; fill-opacity:0.0; 
stroke:#000000; stroke-width:59.0551; stroke-opacity:1; 
stroke-linecap:round; stroke-linejoin:round;">
<circle cx="28090.6" cy="6968.5" r="656.168" /> 
<path d="M27106 6968
L29074 6968
" />
<path d="M28090 5984
L28090 7952
" />
<circle cx="6043.31" cy="6968.5" r="656.168" /> 
<path d="M5059 6968
L7027 6968
" />
<path d="M6043 5984
L6043 7952
" />
<path d="M6633 4803
L4468 2637
" />
<path d="M6830 5000
L6830 2440
" />
<path d="M4271 5000
L6830 5000
" />
<path d="M27303 5000
L29862 5000
" />
<path d="M27303 5000
L27303 2440
" />
<path d="M29665 2637
L27499 4803
" />
<path d="M29862 31968
L4271 31968
" />
<path d="M29862 2440
L29862 31968
" />
<path d="M4271 2440
L29862 2440
" />
<path d="M4271 2440
L4271 31968
" />
<circle cx="28090.6" cy="30196.9" r="656.168" /> 
<path d="M27106 30196
L29074 30196
" />
<path d="M28090 29212
L28090 31181
" />
<circle cx="6043.31" cy="30196.9" r="656.168" /> 
<path d="M5059 30196
L7027 30196
" />
<path d="M6043 29212
L6043 31181
" />
<path d="M29724 28103
L29824 28103
" />
</g> 
</svg>
