G04 #@! TF.FileFunction,Copper,L2,Bot,Signal*
%FSLAX46Y46*%
G04 Gerber Fmt 4.6, Leading zero omitted, Abs format (unit mm)*
G04 Created by KiCad (PCBNEW 4.0.6+dfsg1-1) date Wed Oct 18 19:09:21 2017*
%MOMM*%
%LPD*%
G01*
G04 APERTURE LIST*
%ADD10C,0.100000*%
%ADD11O,1.600000X1.600000*%
%ADD12C,1.600000*%
%ADD13R,1.600000X1.600000*%
%ADD14O,1.700000X1.700000*%
%ADD15R,1.700000X1.700000*%
%ADD16O,2.000000X2.600000*%
%ADD17R,2.000000X2.600000*%
%ADD18C,1.508000*%
%ADD19O,1.800000X1.800000*%
%ADD20R,1.800000X1.800000*%
%ADD21C,2.000000*%
%ADD22C,1.000000*%
%ADD23C,0.250000*%
%ADD24C,0.254000*%
G04 APERTURE END LIST*
D10*
D11*
X152200000Y-104280000D03*
D12*
X152200000Y-111900000D03*
D11*
X159200000Y-117120000D03*
D12*
X159200000Y-109500000D03*
X164300000Y-114300000D03*
D13*
X164300000Y-111800000D03*
D12*
X147600000Y-109700000D03*
D13*
X147600000Y-112200000D03*
D14*
X145180000Y-116700000D03*
X142640000Y-116700000D03*
D15*
X140100000Y-116700000D03*
D14*
X131780000Y-110200000D03*
X129240000Y-110200000D03*
D15*
X126700000Y-110200000D03*
D14*
X181080000Y-110700000D03*
X178540000Y-110700000D03*
D15*
X176000000Y-110700000D03*
D14*
X143090000Y-104250000D03*
D15*
X140550000Y-104250000D03*
D16*
X186640000Y-90200000D03*
D17*
X184100000Y-90200000D03*
D18*
X129300000Y-90000000D03*
X131300000Y-90000000D03*
X133300000Y-90000000D03*
X135300000Y-90000000D03*
D11*
X155800000Y-101780000D03*
D12*
X155800000Y-109400000D03*
D11*
X159020000Y-98150000D03*
D12*
X151400000Y-98150000D03*
D11*
X131900000Y-98980000D03*
D12*
X131900000Y-106600000D03*
D11*
X126500000Y-106620000D03*
D12*
X126500000Y-99000000D03*
D11*
X178550000Y-98580000D03*
D12*
X178550000Y-106200000D03*
D11*
X174700000Y-106170000D03*
D12*
X174700000Y-98550000D03*
D11*
X137880000Y-98550000D03*
D12*
X145500000Y-98550000D03*
D11*
X166920000Y-106200000D03*
D12*
X159300000Y-106200000D03*
D11*
X159300000Y-87780000D03*
X174540000Y-95400000D03*
X161840000Y-87780000D03*
X172000000Y-95400000D03*
X164380000Y-87780000D03*
X169460000Y-95400000D03*
X166920000Y-87780000D03*
X166920000Y-95400000D03*
X169460000Y-87780000D03*
X164380000Y-95400000D03*
X172000000Y-87780000D03*
X161840000Y-95400000D03*
X174540000Y-87780000D03*
D13*
X159300000Y-95400000D03*
D19*
X186500000Y-98320000D03*
X186500000Y-100860000D03*
D20*
X186500000Y-103400000D03*
D21*
X135100000Y-99100000D03*
X135900000Y-116700000D03*
X147600000Y-101400000D03*
D22*
X159200000Y-117120000D02*
X163380000Y-117120000D01*
X164300000Y-116200000D02*
X164300000Y-114300000D01*
X163380000Y-117120000D02*
X164300000Y-116200000D01*
X155800000Y-109400000D02*
X155800000Y-117120000D01*
X156000000Y-117000000D02*
X156000000Y-117120000D01*
X155920000Y-117000000D02*
X156000000Y-117000000D01*
X155800000Y-117120000D02*
X155920000Y-117000000D01*
X159200000Y-117120000D02*
X156000000Y-117120000D01*
X156000000Y-117120000D02*
X153120000Y-117120000D01*
X152200000Y-116200000D02*
X152200000Y-111900000D01*
X153120000Y-117120000D02*
X152200000Y-116200000D01*
X140100000Y-116700000D02*
X135900000Y-116700000D01*
X135100000Y-99100000D02*
X135100000Y-99700000D01*
X126700000Y-110200000D02*
X126700000Y-112500000D01*
X130900000Y-116700000D02*
X140100000Y-116700000D01*
X126700000Y-112500000D02*
X130900000Y-116700000D01*
X126500000Y-106620000D02*
X126500000Y-110000000D01*
X126500000Y-110000000D02*
X126700000Y-110200000D01*
X179800000Y-110700000D02*
X179800000Y-108800000D01*
X181550000Y-107050000D02*
X181550000Y-100750000D01*
X179800000Y-108800000D02*
X181550000Y-107050000D01*
X178540000Y-110700000D02*
X179800000Y-110700000D01*
X179800000Y-110700000D02*
X181080000Y-110700000D01*
D23*
X126700000Y-106820000D02*
X126500000Y-106620000D01*
D22*
X181550000Y-100750000D02*
X181700000Y-100750000D01*
X181700000Y-100750000D02*
X186390000Y-100750000D01*
X186390000Y-100750000D02*
X186500000Y-100860000D01*
X178550000Y-98580000D02*
X181520000Y-98580000D01*
X181520000Y-98580000D02*
X181550000Y-98610000D01*
X181550000Y-98610000D02*
X181550000Y-100750000D01*
D23*
X159180000Y-117100000D02*
X159200000Y-117120000D01*
X159180000Y-117100000D02*
X159200000Y-117120000D01*
X186140000Y-100500000D02*
X186500000Y-100860000D01*
X179030000Y-98100000D02*
X178550000Y-98580000D01*
D22*
X159300000Y-107900000D02*
X162900000Y-107900000D01*
X164300000Y-109300000D02*
X164300000Y-111800000D01*
X162900000Y-107900000D02*
X164300000Y-109300000D01*
X159300000Y-106200000D02*
X159300000Y-107900000D01*
X159300000Y-107900000D02*
X159300000Y-109400000D01*
X159300000Y-109400000D02*
X159200000Y-109500000D01*
X159300000Y-106200000D02*
X148650000Y-106200000D01*
X148650000Y-106200000D02*
X146800000Y-104350000D01*
X145500000Y-98550000D02*
X145500000Y-103050000D01*
X145500000Y-103050000D02*
X146800000Y-104350000D01*
X146800000Y-104350000D02*
X143190000Y-104350000D01*
X143190000Y-104350000D02*
X143090000Y-104250000D01*
D23*
X159300000Y-109450000D02*
X159350000Y-109500000D01*
X159450000Y-109600000D02*
X159350000Y-109500000D01*
D22*
X152200000Y-104280000D02*
X152200000Y-102300000D01*
X151300000Y-101400000D02*
X147600000Y-101400000D01*
X152200000Y-102300000D02*
X151300000Y-101400000D01*
X164380000Y-95400000D02*
X164380000Y-99870000D01*
X156120000Y-104280000D02*
X152200000Y-104280000D01*
X160100000Y-100300000D02*
X156120000Y-104280000D01*
X163950000Y-100300000D02*
X160100000Y-100300000D01*
X164380000Y-99870000D02*
X163950000Y-100300000D01*
D23*
X164600000Y-95620000D02*
X164380000Y-95400000D01*
D22*
X145180000Y-116700000D02*
X145180000Y-114620000D01*
X145180000Y-114620000D02*
X147600000Y-112200000D01*
X186500000Y-98320000D02*
X184180000Y-98320000D01*
X184180000Y-98320000D02*
X184100000Y-98240000D01*
X184100000Y-98240000D02*
X184100000Y-90200000D01*
X129240000Y-110200000D02*
X129240000Y-112040000D01*
X142640000Y-114940000D02*
X142640000Y-116700000D01*
X141400000Y-113700000D02*
X142640000Y-114940000D01*
X130900000Y-113700000D02*
X141400000Y-113700000D01*
X129240000Y-112040000D02*
X130900000Y-113700000D01*
D23*
X129240000Y-110200000D02*
X129300000Y-110200000D01*
X129240000Y-110200000D02*
X129240000Y-110340000D01*
X184100000Y-98240000D02*
X184100000Y-90200000D01*
D22*
X131780000Y-110200000D02*
X131780000Y-106720000D01*
X131780000Y-106720000D02*
X131900000Y-106600000D01*
D23*
X131900000Y-106600000D02*
X131900000Y-106400000D01*
X131900000Y-106400000D02*
X131780000Y-106520000D01*
D22*
X169460000Y-95400000D02*
X169460000Y-104160000D01*
X169460000Y-104160000D02*
X176000000Y-110700000D01*
X135300000Y-90000000D02*
X135300000Y-88100000D01*
X127150000Y-104250000D02*
X140550000Y-104250000D01*
X123000000Y-100100000D02*
X127150000Y-104250000D01*
X123000000Y-87400000D02*
X123000000Y-100100000D01*
X124700000Y-85700000D02*
X123000000Y-87400000D01*
X132900000Y-85700000D02*
X124700000Y-85700000D01*
X135300000Y-88100000D02*
X132900000Y-85700000D01*
X140550000Y-104250000D02*
X138250000Y-104250000D01*
X138250000Y-104250000D02*
X138200000Y-104250000D01*
X137880000Y-103930000D02*
X137880000Y-98550000D01*
X138200000Y-104250000D02*
X137880000Y-103930000D01*
X129300000Y-90000000D02*
X129300000Y-93300000D01*
X131500000Y-95500000D02*
X151400000Y-95500000D01*
X129300000Y-93300000D02*
X131500000Y-95500000D01*
X151400000Y-98150000D02*
X151400000Y-95500000D01*
X151400000Y-95500000D02*
X151300000Y-95400000D01*
X159300000Y-95400000D02*
X151300000Y-95400000D01*
X159150000Y-95550000D02*
X159300000Y-95400000D01*
X129400000Y-98980000D02*
X129400000Y-97100000D01*
X126500000Y-94200000D02*
X126500000Y-89300000D01*
X129400000Y-97100000D02*
X126500000Y-94200000D01*
X131300000Y-88000000D02*
X131300000Y-90000000D01*
X126500000Y-89300000D02*
X128400000Y-87400000D01*
X128400000Y-87400000D02*
X130700000Y-87400000D01*
X130700000Y-87400000D02*
X131300000Y-88000000D01*
X126480000Y-98980000D02*
X129400000Y-98980000D01*
X129400000Y-98980000D02*
X131900000Y-98980000D01*
D23*
X131720000Y-98800000D02*
X131900000Y-98980000D01*
D22*
X133300000Y-90000000D02*
X133300000Y-92300000D01*
X174540000Y-92440000D02*
X174540000Y-95400000D01*
X174500000Y-92400000D02*
X174540000Y-92440000D01*
X133400000Y-92400000D02*
X174500000Y-92400000D01*
X133300000Y-92300000D02*
X133400000Y-92400000D01*
X174540000Y-95400000D02*
X174540000Y-98390000D01*
X174540000Y-98390000D02*
X174700000Y-98550000D01*
D23*
X174540000Y-98390000D02*
X174700000Y-98550000D01*
D22*
X186500000Y-108500000D02*
X186500000Y-109000000D01*
X186500000Y-109000000D02*
X185500000Y-110000000D01*
X185500000Y-110000000D02*
X181400000Y-114100000D01*
X166920000Y-106200000D02*
X166920000Y-106370000D01*
X166920000Y-106370000D02*
X173800000Y-114100000D01*
X173800000Y-114100000D02*
X181400000Y-114100000D01*
X186500000Y-108500000D02*
X186500000Y-103400000D01*
X166920000Y-95400000D02*
X166920000Y-106200000D01*
D23*
X166900000Y-95420000D02*
X166920000Y-95400000D01*
D22*
X159020000Y-98150000D02*
X161800000Y-98150000D01*
X161840000Y-98110000D02*
X161840000Y-95400000D01*
X161800000Y-98150000D02*
X161840000Y-98110000D01*
X155800000Y-101780000D02*
X155800000Y-101670000D01*
X155800000Y-101670000D02*
X159020000Y-98150000D01*
D23*
X159300000Y-98500000D02*
X159225000Y-98575000D01*
X155800000Y-101780000D02*
X155800000Y-101720000D01*
X159015000Y-98145000D02*
X159020000Y-98150000D01*
D22*
X174700000Y-106170000D02*
X178520000Y-106170000D01*
X178520000Y-106170000D02*
X178550000Y-106200000D01*
X172000000Y-95400000D02*
X172000000Y-103120000D01*
X172000000Y-103120000D02*
X174700000Y-106170000D01*
D23*
X172000000Y-103120000D02*
X174700000Y-106170000D01*
X178370000Y-105820000D02*
X178350000Y-105800000D01*
D24*
G36*
X122197434Y-86597434D02*
X121951397Y-86965654D01*
X121865000Y-87400000D01*
X121865000Y-100100000D01*
X121951397Y-100534346D01*
X122085033Y-100734346D01*
X122197434Y-100902566D01*
X126347434Y-105052566D01*
X126715654Y-105298603D01*
X126719363Y-105299341D01*
X126627000Y-105350085D01*
X126627000Y-106493000D01*
X127770629Y-106493000D01*
X127891914Y-106270959D01*
X127652389Y-105764866D01*
X127237423Y-105388959D01*
X127227864Y-105385000D01*
X131085953Y-105385000D01*
X130684176Y-105786077D01*
X130465250Y-106313309D01*
X130464752Y-106884187D01*
X130645000Y-107320421D01*
X130645000Y-109247984D01*
X130510000Y-109450026D01*
X130290054Y-109120853D01*
X129808285Y-108798946D01*
X129240000Y-108685907D01*
X128671715Y-108798946D01*
X128189946Y-109120853D01*
X128160597Y-109164777D01*
X128088327Y-108990302D01*
X127909699Y-108811673D01*
X127676310Y-108715000D01*
X126985750Y-108715000D01*
X126827000Y-108873750D01*
X126827000Y-110073000D01*
X126847000Y-110073000D01*
X126847000Y-110327000D01*
X126827000Y-110327000D01*
X126827000Y-111526250D01*
X126985750Y-111685000D01*
X127676310Y-111685000D01*
X127909699Y-111588327D01*
X128088327Y-111409698D01*
X128105000Y-111369446D01*
X128105000Y-112040000D01*
X128191397Y-112474346D01*
X128360976Y-112728139D01*
X128437434Y-112842566D01*
X130097434Y-114502567D01*
X130465655Y-114748604D01*
X130900000Y-114835000D01*
X140929868Y-114835000D01*
X141505000Y-115410132D01*
X141505000Y-115530554D01*
X141488327Y-115490302D01*
X141309699Y-115311673D01*
X141076310Y-115215000D01*
X140385750Y-115215000D01*
X140227000Y-115373750D01*
X140227000Y-116573000D01*
X140247000Y-116573000D01*
X140247000Y-116827000D01*
X140227000Y-116827000D01*
X140227000Y-118026250D01*
X140385750Y-118185000D01*
X141076310Y-118185000D01*
X141309699Y-118088327D01*
X141488327Y-117909698D01*
X141560597Y-117735223D01*
X141589946Y-117779147D01*
X142071715Y-118101054D01*
X142640000Y-118214093D01*
X143208285Y-118101054D01*
X143690054Y-117779147D01*
X143910000Y-117449974D01*
X144129946Y-117779147D01*
X144611715Y-118101054D01*
X145180000Y-118214093D01*
X145748285Y-118101054D01*
X146230054Y-117779147D01*
X146437259Y-117469041D01*
X157808086Y-117469041D01*
X158047611Y-117975134D01*
X158462577Y-118351041D01*
X158850961Y-118511904D01*
X159073000Y-118389915D01*
X159073000Y-117247000D01*
X159327000Y-117247000D01*
X159327000Y-118389915D01*
X159549039Y-118511904D01*
X159937423Y-118351041D01*
X160352389Y-117975134D01*
X160591914Y-117469041D01*
X160470629Y-117247000D01*
X159327000Y-117247000D01*
X159073000Y-117247000D01*
X157929371Y-117247000D01*
X157808086Y-117469041D01*
X146437259Y-117469041D01*
X146551961Y-117297378D01*
X146656672Y-116770959D01*
X157808086Y-116770959D01*
X157929371Y-116993000D01*
X159073000Y-116993000D01*
X159073000Y-115850085D01*
X159327000Y-115850085D01*
X159327000Y-116993000D01*
X160470629Y-116993000D01*
X160591914Y-116770959D01*
X160352389Y-116264866D01*
X159937423Y-115888959D01*
X159549039Y-115728096D01*
X159327000Y-115850085D01*
X159073000Y-115850085D01*
X158850961Y-115728096D01*
X158462577Y-115888959D01*
X158047611Y-116264866D01*
X157808086Y-116770959D01*
X146656672Y-116770959D01*
X146665000Y-116729093D01*
X146665000Y-116670907D01*
X146551961Y-116102622D01*
X146315000Y-115747984D01*
X146315000Y-115307745D01*
X163471861Y-115307745D01*
X163545995Y-115553864D01*
X164083223Y-115746965D01*
X164653454Y-115719778D01*
X165054005Y-115553864D01*
X165128139Y-115307745D01*
X164300000Y-114479605D01*
X163471861Y-115307745D01*
X146315000Y-115307745D01*
X146315000Y-115090132D01*
X147321909Y-114083223D01*
X162853035Y-114083223D01*
X162880222Y-114653454D01*
X163046136Y-115054005D01*
X163292255Y-115128139D01*
X164120395Y-114300000D01*
X164479605Y-114300000D01*
X165307745Y-115128139D01*
X165553864Y-115054005D01*
X165746965Y-114516777D01*
X165719778Y-113946546D01*
X165553864Y-113545995D01*
X165307745Y-113471861D01*
X164479605Y-114300000D01*
X164120395Y-114300000D01*
X163292255Y-113471861D01*
X163046136Y-113545995D01*
X162853035Y-114083223D01*
X147321909Y-114083223D01*
X147757692Y-113647440D01*
X148400000Y-113647440D01*
X148635317Y-113603162D01*
X148851441Y-113464090D01*
X148996431Y-113251890D01*
X149047440Y-113000000D01*
X149047440Y-112907745D01*
X151371861Y-112907745D01*
X151445995Y-113153864D01*
X151983223Y-113346965D01*
X152553454Y-113319778D01*
X152954005Y-113153864D01*
X153028139Y-112907745D01*
X152200000Y-112079605D01*
X151371861Y-112907745D01*
X149047440Y-112907745D01*
X149047440Y-111683223D01*
X150753035Y-111683223D01*
X150780222Y-112253454D01*
X150946136Y-112654005D01*
X151192255Y-112728139D01*
X152020395Y-111900000D01*
X152379605Y-111900000D01*
X153207745Y-112728139D01*
X153453864Y-112654005D01*
X153646965Y-112116777D01*
X153619778Y-111546546D01*
X153453864Y-111145995D01*
X153207745Y-111071861D01*
X152379605Y-111900000D01*
X152020395Y-111900000D01*
X151192255Y-111071861D01*
X150946136Y-111145995D01*
X150753035Y-111683223D01*
X149047440Y-111683223D01*
X149047440Y-111400000D01*
X149003162Y-111164683D01*
X148864090Y-110948559D01*
X148781687Y-110892255D01*
X151371861Y-110892255D01*
X152200000Y-111720395D01*
X153028139Y-110892255D01*
X152954005Y-110646136D01*
X152416777Y-110453035D01*
X151846546Y-110480222D01*
X151445995Y-110646136D01*
X151371861Y-110892255D01*
X148781687Y-110892255D01*
X148651890Y-110803569D01*
X148546959Y-110782320D01*
X148815824Y-110513923D01*
X148859912Y-110407745D01*
X154971861Y-110407745D01*
X155045995Y-110653864D01*
X155583223Y-110846965D01*
X156153454Y-110819778D01*
X156554005Y-110653864D01*
X156628139Y-110407745D01*
X155800000Y-109579605D01*
X154971861Y-110407745D01*
X148859912Y-110407745D01*
X149034750Y-109986691D01*
X149035248Y-109415813D01*
X148939144Y-109183223D01*
X154353035Y-109183223D01*
X154380222Y-109753454D01*
X154546136Y-110154005D01*
X154792255Y-110228139D01*
X155620395Y-109400000D01*
X155979605Y-109400000D01*
X156807745Y-110228139D01*
X157053864Y-110154005D01*
X157246965Y-109616777D01*
X157219778Y-109046546D01*
X157053864Y-108645995D01*
X156807745Y-108571861D01*
X155979605Y-109400000D01*
X155620395Y-109400000D01*
X154792255Y-108571861D01*
X154546136Y-108645995D01*
X154353035Y-109183223D01*
X148939144Y-109183223D01*
X148817243Y-108888200D01*
X148413923Y-108484176D01*
X148192553Y-108392255D01*
X154971861Y-108392255D01*
X155800000Y-109220395D01*
X156628139Y-108392255D01*
X156554005Y-108146136D01*
X156016777Y-107953035D01*
X155446546Y-107980222D01*
X155045995Y-108146136D01*
X154971861Y-108392255D01*
X148192553Y-108392255D01*
X147886691Y-108265250D01*
X147315813Y-108264752D01*
X146788200Y-108482757D01*
X146384176Y-108886077D01*
X146165250Y-109413309D01*
X146164752Y-109984187D01*
X146382757Y-110511800D01*
X146651072Y-110780583D01*
X146564683Y-110796838D01*
X146348559Y-110935910D01*
X146203569Y-111148110D01*
X146152560Y-111400000D01*
X146152560Y-112042308D01*
X144377434Y-113817434D01*
X144131397Y-114185654D01*
X144045000Y-114620000D01*
X144045000Y-115747984D01*
X143910000Y-115950026D01*
X143775000Y-115747984D01*
X143775000Y-114940000D01*
X143688603Y-114505654D01*
X143442566Y-114137434D01*
X142202566Y-112897434D01*
X142136118Y-112853035D01*
X141834346Y-112651397D01*
X141400000Y-112565000D01*
X131370133Y-112565000D01*
X130375000Y-111569868D01*
X130375000Y-111152016D01*
X130510000Y-110949974D01*
X130729946Y-111279147D01*
X131211715Y-111601054D01*
X131780000Y-111714093D01*
X132348285Y-111601054D01*
X132830054Y-111279147D01*
X133151961Y-110797378D01*
X133265000Y-110229093D01*
X133265000Y-110170907D01*
X133151961Y-109602622D01*
X132915000Y-109247984D01*
X132915000Y-107614397D01*
X133115824Y-107413923D01*
X133334750Y-106886691D01*
X133335248Y-106315813D01*
X133117243Y-105788200D01*
X132714746Y-105385000D01*
X139128808Y-105385000D01*
X139235910Y-105551441D01*
X139448110Y-105696431D01*
X139700000Y-105747440D01*
X141400000Y-105747440D01*
X141635317Y-105703162D01*
X141851441Y-105564090D01*
X141996431Y-105351890D01*
X142010086Y-105284459D01*
X142039946Y-105329147D01*
X142521715Y-105651054D01*
X143090000Y-105764093D01*
X143658285Y-105651054D01*
X143906803Y-105485000D01*
X146329868Y-105485000D01*
X147847434Y-107002566D01*
X148215654Y-107248603D01*
X148650000Y-107335000D01*
X158165000Y-107335000D01*
X158165000Y-108505568D01*
X157984176Y-108686077D01*
X157765250Y-109213309D01*
X157764752Y-109784187D01*
X157982757Y-110311800D01*
X158386077Y-110715824D01*
X158913309Y-110934750D01*
X159484187Y-110935248D01*
X160011800Y-110717243D01*
X160415824Y-110313923D01*
X160634750Y-109786691D01*
X160635248Y-109215813D01*
X160560538Y-109035000D01*
X162429868Y-109035000D01*
X163165000Y-109770132D01*
X163165000Y-110460982D01*
X163048559Y-110535910D01*
X162903569Y-110748110D01*
X162852560Y-111000000D01*
X162852560Y-112600000D01*
X162896838Y-112835317D01*
X163035910Y-113051441D01*
X163248110Y-113196431D01*
X163486201Y-113244646D01*
X163471861Y-113292255D01*
X164300000Y-114120395D01*
X165128139Y-113292255D01*
X165113855Y-113244833D01*
X165335317Y-113203162D01*
X165551441Y-113064090D01*
X165696431Y-112851890D01*
X165747440Y-112600000D01*
X165747440Y-111000000D01*
X165703162Y-110764683D01*
X165564090Y-110548559D01*
X165435000Y-110460356D01*
X165435000Y-109300000D01*
X165348603Y-108865654D01*
X165102566Y-108497434D01*
X163702566Y-107097434D01*
X163642652Y-107057401D01*
X163334346Y-106851397D01*
X162900000Y-106765000D01*
X160619186Y-106765000D01*
X160734750Y-106486691D01*
X160735248Y-105915813D01*
X160517243Y-105388200D01*
X160113923Y-104984176D01*
X159586691Y-104765250D01*
X159015813Y-104764752D01*
X158488200Y-104982757D01*
X158405813Y-105065000D01*
X156940132Y-105065000D01*
X160570132Y-101435000D01*
X163950000Y-101435000D01*
X164384346Y-101348603D01*
X164752566Y-101102566D01*
X165182566Y-100672566D01*
X165274485Y-100535000D01*
X165428603Y-100304346D01*
X165515000Y-99870000D01*
X165515000Y-96262767D01*
X165650000Y-96060725D01*
X165785000Y-96262767D01*
X165785000Y-105323272D01*
X165566120Y-105650849D01*
X165456887Y-106200000D01*
X165566120Y-106749151D01*
X165877189Y-107214698D01*
X166342736Y-107525767D01*
X166447839Y-107546673D01*
X172952174Y-114854597D01*
X172978855Y-114874761D01*
X172997434Y-114902566D01*
X173154640Y-115007608D01*
X173305484Y-115121606D01*
X173337849Y-115130024D01*
X173365654Y-115148603D01*
X173551101Y-115185491D01*
X173734078Y-115233083D01*
X173767198Y-115228475D01*
X173800000Y-115235000D01*
X181400000Y-115235000D01*
X181834346Y-115148603D01*
X182202566Y-114902566D01*
X186302566Y-110802566D01*
X187302567Y-109802566D01*
X187548604Y-109434345D01*
X187635000Y-109000000D01*
X187635000Y-104903222D01*
X187635317Y-104903162D01*
X187851441Y-104764090D01*
X187996431Y-104551890D01*
X188047440Y-104300000D01*
X188047440Y-102500000D01*
X188003162Y-102264683D01*
X187864090Y-102048559D01*
X187651890Y-101903569D01*
X187600854Y-101893234D01*
X187737966Y-101767576D01*
X187991046Y-101224742D01*
X187870997Y-100987000D01*
X186627000Y-100987000D01*
X186627000Y-101007000D01*
X186373000Y-101007000D01*
X186373000Y-100987000D01*
X185129003Y-100987000D01*
X185008954Y-101224742D01*
X185262034Y-101767576D01*
X185396538Y-101890844D01*
X185364683Y-101896838D01*
X185148559Y-102035910D01*
X185003569Y-102248110D01*
X184952560Y-102500000D01*
X184952560Y-104300000D01*
X184996838Y-104535317D01*
X185135910Y-104751441D01*
X185348110Y-104896431D01*
X185365000Y-104899851D01*
X185365000Y-108529867D01*
X184697434Y-109197434D01*
X180929868Y-112965000D01*
X174309252Y-112965000D01*
X168365765Y-106287216D01*
X168383113Y-106200000D01*
X168273880Y-105650849D01*
X168055000Y-105323272D01*
X168055000Y-96262767D01*
X168190000Y-96060725D01*
X168325000Y-96262767D01*
X168325000Y-104160000D01*
X168411397Y-104594346D01*
X168647327Y-104947440D01*
X168657434Y-104962566D01*
X174502560Y-110807692D01*
X174502560Y-111550000D01*
X174546838Y-111785317D01*
X174685910Y-112001441D01*
X174898110Y-112146431D01*
X175150000Y-112197440D01*
X176850000Y-112197440D01*
X177085317Y-112153162D01*
X177301441Y-112014090D01*
X177446431Y-111801890D01*
X177468301Y-111693893D01*
X177773076Y-111971645D01*
X178183110Y-112141476D01*
X178413000Y-112020155D01*
X178413000Y-110827000D01*
X178667000Y-110827000D01*
X178667000Y-112020155D01*
X178896890Y-112141476D01*
X179306924Y-111971645D01*
X179735183Y-111581358D01*
X179810000Y-111422046D01*
X179884817Y-111581358D01*
X180313076Y-111971645D01*
X180723110Y-112141476D01*
X180953000Y-112020155D01*
X180953000Y-110827000D01*
X181207000Y-110827000D01*
X181207000Y-112020155D01*
X181436890Y-112141476D01*
X181846924Y-111971645D01*
X182275183Y-111581358D01*
X182521486Y-111056892D01*
X182400819Y-110827000D01*
X181207000Y-110827000D01*
X180953000Y-110827000D01*
X178667000Y-110827000D01*
X178413000Y-110827000D01*
X178393000Y-110827000D01*
X178393000Y-110573000D01*
X178413000Y-110573000D01*
X178413000Y-109379845D01*
X178667000Y-109379845D01*
X178667000Y-110573000D01*
X180953000Y-110573000D01*
X180953000Y-109379845D01*
X181207000Y-109379845D01*
X181207000Y-110573000D01*
X182400819Y-110573000D01*
X182521486Y-110343108D01*
X182275183Y-109818642D01*
X181846924Y-109428355D01*
X181436890Y-109258524D01*
X181207000Y-109379845D01*
X180953000Y-109379845D01*
X180723110Y-109258524D01*
X180313076Y-109428355D01*
X179884817Y-109818642D01*
X179810000Y-109977954D01*
X179735183Y-109818642D01*
X179306924Y-109428355D01*
X178896890Y-109258524D01*
X178667000Y-109379845D01*
X178413000Y-109379845D01*
X178183110Y-109258524D01*
X177773076Y-109428355D01*
X177470063Y-109704501D01*
X177453162Y-109614683D01*
X177314090Y-109398559D01*
X177101890Y-109253569D01*
X176850000Y-109202560D01*
X176107692Y-109202560D01*
X174498081Y-107592949D01*
X174700000Y-107633113D01*
X175249151Y-107523880D01*
X175576728Y-107305000D01*
X177625446Y-107305000D01*
X177736077Y-107415824D01*
X178263309Y-107634750D01*
X178834187Y-107635248D01*
X179361800Y-107417243D01*
X179765824Y-107013923D01*
X179984750Y-106486691D01*
X179985248Y-105915813D01*
X179767243Y-105388200D01*
X179363923Y-104984176D01*
X178836691Y-104765250D01*
X178265813Y-104764752D01*
X177738200Y-104982757D01*
X177685866Y-105035000D01*
X175576728Y-105035000D01*
X175249151Y-104816120D01*
X174967771Y-104760150D01*
X173135000Y-102689798D01*
X173135000Y-96262767D01*
X173270000Y-96060725D01*
X173405000Y-96262767D01*
X173405000Y-97926754D01*
X173265250Y-98263309D01*
X173264752Y-98834187D01*
X173482757Y-99361800D01*
X173886077Y-99765824D01*
X174413309Y-99984750D01*
X174984187Y-99985248D01*
X175511800Y-99767243D01*
X175915824Y-99363923D01*
X176096402Y-98929041D01*
X177158086Y-98929041D01*
X177397611Y-99435134D01*
X177812577Y-99811041D01*
X178200961Y-99971904D01*
X178423000Y-99849915D01*
X178423000Y-98707000D01*
X178677000Y-98707000D01*
X178677000Y-99849915D01*
X178899039Y-99971904D01*
X179287423Y-99811041D01*
X179702389Y-99435134D01*
X179941914Y-98929041D01*
X179820629Y-98707000D01*
X178677000Y-98707000D01*
X178423000Y-98707000D01*
X177279371Y-98707000D01*
X177158086Y-98929041D01*
X176096402Y-98929041D01*
X176134750Y-98836691D01*
X176135248Y-98265813D01*
X176120847Y-98230959D01*
X177158086Y-98230959D01*
X177279371Y-98453000D01*
X178423000Y-98453000D01*
X178423000Y-97310085D01*
X178677000Y-97310085D01*
X178677000Y-98453000D01*
X179820629Y-98453000D01*
X179941914Y-98230959D01*
X179702389Y-97724866D01*
X179287423Y-97348959D01*
X178899039Y-97188096D01*
X178677000Y-97310085D01*
X178423000Y-97310085D01*
X178200961Y-97188096D01*
X177812577Y-97348959D01*
X177397611Y-97724866D01*
X177158086Y-98230959D01*
X176120847Y-98230959D01*
X175917243Y-97738200D01*
X175675000Y-97495534D01*
X175675000Y-96262767D01*
X175865767Y-95977264D01*
X175975000Y-95428113D01*
X175975000Y-95371887D01*
X175865767Y-94822736D01*
X175675000Y-94537233D01*
X175675000Y-92440000D01*
X175588604Y-92005655D01*
X175342567Y-91637434D01*
X175302566Y-91597434D01*
X174934346Y-91351397D01*
X174500000Y-91265000D01*
X135875761Y-91265000D01*
X136085777Y-91178223D01*
X136476850Y-90787833D01*
X136688758Y-90277501D01*
X136689240Y-89724923D01*
X136478223Y-89214223D01*
X136435000Y-89170924D01*
X136435000Y-88100000D01*
X136365756Y-87751887D01*
X157865000Y-87751887D01*
X157865000Y-87808113D01*
X157974233Y-88357264D01*
X158285302Y-88822811D01*
X158750849Y-89133880D01*
X159300000Y-89243113D01*
X159849151Y-89133880D01*
X160314698Y-88822811D01*
X160570000Y-88440725D01*
X160825302Y-88822811D01*
X161290849Y-89133880D01*
X161840000Y-89243113D01*
X162389151Y-89133880D01*
X162854698Y-88822811D01*
X163110000Y-88440725D01*
X163365302Y-88822811D01*
X163830849Y-89133880D01*
X164380000Y-89243113D01*
X164929151Y-89133880D01*
X165394698Y-88822811D01*
X165664986Y-88418297D01*
X165767611Y-88635134D01*
X166182577Y-89011041D01*
X166570961Y-89171904D01*
X166793000Y-89049915D01*
X166793000Y-87907000D01*
X166773000Y-87907000D01*
X166773000Y-87653000D01*
X166793000Y-87653000D01*
X166793000Y-86510085D01*
X167047000Y-86510085D01*
X167047000Y-87653000D01*
X167067000Y-87653000D01*
X167067000Y-87907000D01*
X167047000Y-87907000D01*
X167047000Y-89049915D01*
X167269039Y-89171904D01*
X167657423Y-89011041D01*
X168072389Y-88635134D01*
X168175014Y-88418297D01*
X168445302Y-88822811D01*
X168910849Y-89133880D01*
X169460000Y-89243113D01*
X170009151Y-89133880D01*
X170474698Y-88822811D01*
X170730000Y-88440725D01*
X170985302Y-88822811D01*
X171450849Y-89133880D01*
X172000000Y-89243113D01*
X172549151Y-89133880D01*
X173014698Y-88822811D01*
X173270000Y-88440725D01*
X173525302Y-88822811D01*
X173990849Y-89133880D01*
X174540000Y-89243113D01*
X175089151Y-89133880D01*
X175439176Y-88900000D01*
X182452560Y-88900000D01*
X182452560Y-91500000D01*
X182496838Y-91735317D01*
X182635910Y-91951441D01*
X182848110Y-92096431D01*
X182965000Y-92120102D01*
X182965000Y-98240000D01*
X183051397Y-98674346D01*
X183245606Y-98965000D01*
X183297434Y-99042566D01*
X183377434Y-99122566D01*
X183745654Y-99368603D01*
X184180000Y-99455000D01*
X185443803Y-99455000D01*
X185652582Y-99594501D01*
X185262034Y-99952424D01*
X185008954Y-100495258D01*
X185129003Y-100733000D01*
X186373000Y-100733000D01*
X186373000Y-100713000D01*
X186627000Y-100713000D01*
X186627000Y-100733000D01*
X187870997Y-100733000D01*
X187991046Y-100495258D01*
X187737966Y-99952424D01*
X187347418Y-99594501D01*
X187585409Y-99435481D01*
X187918155Y-98937491D01*
X188035000Y-98350072D01*
X188035000Y-98289928D01*
X187918155Y-97702509D01*
X187585409Y-97204519D01*
X187087419Y-96871773D01*
X186500000Y-96754928D01*
X185912581Y-96871773D01*
X185443803Y-97185000D01*
X185235000Y-97185000D01*
X185235000Y-92122038D01*
X185335317Y-92103162D01*
X185551441Y-91964090D01*
X185665349Y-91797380D01*
X186131645Y-92059144D01*
X186259566Y-92090124D01*
X186513000Y-91970777D01*
X186513000Y-90327000D01*
X186767000Y-90327000D01*
X186767000Y-91970777D01*
X187020434Y-92090124D01*
X187148355Y-92059144D01*
X187706317Y-91745922D01*
X188101942Y-91243020D01*
X188275000Y-90627000D01*
X188275000Y-90327000D01*
X186767000Y-90327000D01*
X186513000Y-90327000D01*
X186493000Y-90327000D01*
X186493000Y-90073000D01*
X186513000Y-90073000D01*
X186513000Y-88429223D01*
X186767000Y-88429223D01*
X186767000Y-90073000D01*
X188275000Y-90073000D01*
X188275000Y-89773000D01*
X188101942Y-89156980D01*
X187706317Y-88654078D01*
X187148355Y-88340856D01*
X187020434Y-88309876D01*
X186767000Y-88429223D01*
X186513000Y-88429223D01*
X186259566Y-88309876D01*
X186131645Y-88340856D01*
X185663789Y-88603495D01*
X185564090Y-88448559D01*
X185351890Y-88303569D01*
X185100000Y-88252560D01*
X183100000Y-88252560D01*
X182864683Y-88296838D01*
X182648559Y-88435910D01*
X182503569Y-88648110D01*
X182452560Y-88900000D01*
X175439176Y-88900000D01*
X175554698Y-88822811D01*
X175865767Y-88357264D01*
X175975000Y-87808113D01*
X175975000Y-87751887D01*
X175865767Y-87202736D01*
X175554698Y-86737189D01*
X175089151Y-86426120D01*
X174540000Y-86316887D01*
X173990849Y-86426120D01*
X173525302Y-86737189D01*
X173270000Y-87119275D01*
X173014698Y-86737189D01*
X172549151Y-86426120D01*
X172000000Y-86316887D01*
X171450849Y-86426120D01*
X170985302Y-86737189D01*
X170730000Y-87119275D01*
X170474698Y-86737189D01*
X170009151Y-86426120D01*
X169460000Y-86316887D01*
X168910849Y-86426120D01*
X168445302Y-86737189D01*
X168175014Y-87141703D01*
X168072389Y-86924866D01*
X167657423Y-86548959D01*
X167269039Y-86388096D01*
X167047000Y-86510085D01*
X166793000Y-86510085D01*
X166570961Y-86388096D01*
X166182577Y-86548959D01*
X165767611Y-86924866D01*
X165664986Y-87141703D01*
X165394698Y-86737189D01*
X164929151Y-86426120D01*
X164380000Y-86316887D01*
X163830849Y-86426120D01*
X163365302Y-86737189D01*
X163110000Y-87119275D01*
X162854698Y-86737189D01*
X162389151Y-86426120D01*
X161840000Y-86316887D01*
X161290849Y-86426120D01*
X160825302Y-86737189D01*
X160570000Y-87119275D01*
X160314698Y-86737189D01*
X159849151Y-86426120D01*
X159300000Y-86316887D01*
X158750849Y-86426120D01*
X158285302Y-86737189D01*
X157974233Y-87202736D01*
X157865000Y-87751887D01*
X136365756Y-87751887D01*
X136348604Y-87665655D01*
X136102567Y-87297434D01*
X133932132Y-85127000D01*
X190873000Y-85127000D01*
X190873000Y-119873000D01*
X121127000Y-119873000D01*
X121127000Y-116985750D01*
X138615000Y-116985750D01*
X138615000Y-117676309D01*
X138711673Y-117909698D01*
X138890301Y-118088327D01*
X139123690Y-118185000D01*
X139814250Y-118185000D01*
X139973000Y-118026250D01*
X139973000Y-116827000D01*
X138773750Y-116827000D01*
X138615000Y-116985750D01*
X121127000Y-116985750D01*
X121127000Y-115723691D01*
X138615000Y-115723691D01*
X138615000Y-116414250D01*
X138773750Y-116573000D01*
X139973000Y-116573000D01*
X139973000Y-115373750D01*
X139814250Y-115215000D01*
X139123690Y-115215000D01*
X138890301Y-115311673D01*
X138711673Y-115490302D01*
X138615000Y-115723691D01*
X121127000Y-115723691D01*
X121127000Y-110485750D01*
X125215000Y-110485750D01*
X125215000Y-111176309D01*
X125311673Y-111409698D01*
X125490301Y-111588327D01*
X125723690Y-111685000D01*
X126414250Y-111685000D01*
X126573000Y-111526250D01*
X126573000Y-110327000D01*
X125373750Y-110327000D01*
X125215000Y-110485750D01*
X121127000Y-110485750D01*
X121127000Y-109223691D01*
X125215000Y-109223691D01*
X125215000Y-109914250D01*
X125373750Y-110073000D01*
X126573000Y-110073000D01*
X126573000Y-108873750D01*
X126414250Y-108715000D01*
X125723690Y-108715000D01*
X125490301Y-108811673D01*
X125311673Y-108990302D01*
X125215000Y-109223691D01*
X121127000Y-109223691D01*
X121127000Y-106969041D01*
X125108086Y-106969041D01*
X125347611Y-107475134D01*
X125762577Y-107851041D01*
X126150961Y-108011904D01*
X126373000Y-107889915D01*
X126373000Y-106747000D01*
X126627000Y-106747000D01*
X126627000Y-107889915D01*
X126849039Y-108011904D01*
X127237423Y-107851041D01*
X127652389Y-107475134D01*
X127891914Y-106969041D01*
X127770629Y-106747000D01*
X126627000Y-106747000D01*
X126373000Y-106747000D01*
X125229371Y-106747000D01*
X125108086Y-106969041D01*
X121127000Y-106969041D01*
X121127000Y-106270959D01*
X125108086Y-106270959D01*
X125229371Y-106493000D01*
X126373000Y-106493000D01*
X126373000Y-105350085D01*
X126150961Y-105228096D01*
X125762577Y-105388959D01*
X125347611Y-105764866D01*
X125108086Y-106270959D01*
X121127000Y-106270959D01*
X121127000Y-85127000D01*
X123667868Y-85127000D01*
X122197434Y-86597434D01*
X122197434Y-86597434D01*
G37*
X122197434Y-86597434D02*
X121951397Y-86965654D01*
X121865000Y-87400000D01*
X121865000Y-100100000D01*
X121951397Y-100534346D01*
X122085033Y-100734346D01*
X122197434Y-100902566D01*
X126347434Y-105052566D01*
X126715654Y-105298603D01*
X126719363Y-105299341D01*
X126627000Y-105350085D01*
X126627000Y-106493000D01*
X127770629Y-106493000D01*
X127891914Y-106270959D01*
X127652389Y-105764866D01*
X127237423Y-105388959D01*
X127227864Y-105385000D01*
X131085953Y-105385000D01*
X130684176Y-105786077D01*
X130465250Y-106313309D01*
X130464752Y-106884187D01*
X130645000Y-107320421D01*
X130645000Y-109247984D01*
X130510000Y-109450026D01*
X130290054Y-109120853D01*
X129808285Y-108798946D01*
X129240000Y-108685907D01*
X128671715Y-108798946D01*
X128189946Y-109120853D01*
X128160597Y-109164777D01*
X128088327Y-108990302D01*
X127909699Y-108811673D01*
X127676310Y-108715000D01*
X126985750Y-108715000D01*
X126827000Y-108873750D01*
X126827000Y-110073000D01*
X126847000Y-110073000D01*
X126847000Y-110327000D01*
X126827000Y-110327000D01*
X126827000Y-111526250D01*
X126985750Y-111685000D01*
X127676310Y-111685000D01*
X127909699Y-111588327D01*
X128088327Y-111409698D01*
X128105000Y-111369446D01*
X128105000Y-112040000D01*
X128191397Y-112474346D01*
X128360976Y-112728139D01*
X128437434Y-112842566D01*
X130097434Y-114502567D01*
X130465655Y-114748604D01*
X130900000Y-114835000D01*
X140929868Y-114835000D01*
X141505000Y-115410132D01*
X141505000Y-115530554D01*
X141488327Y-115490302D01*
X141309699Y-115311673D01*
X141076310Y-115215000D01*
X140385750Y-115215000D01*
X140227000Y-115373750D01*
X140227000Y-116573000D01*
X140247000Y-116573000D01*
X140247000Y-116827000D01*
X140227000Y-116827000D01*
X140227000Y-118026250D01*
X140385750Y-118185000D01*
X141076310Y-118185000D01*
X141309699Y-118088327D01*
X141488327Y-117909698D01*
X141560597Y-117735223D01*
X141589946Y-117779147D01*
X142071715Y-118101054D01*
X142640000Y-118214093D01*
X143208285Y-118101054D01*
X143690054Y-117779147D01*
X143910000Y-117449974D01*
X144129946Y-117779147D01*
X144611715Y-118101054D01*
X145180000Y-118214093D01*
X145748285Y-118101054D01*
X146230054Y-117779147D01*
X146437259Y-117469041D01*
X157808086Y-117469041D01*
X158047611Y-117975134D01*
X158462577Y-118351041D01*
X158850961Y-118511904D01*
X159073000Y-118389915D01*
X159073000Y-117247000D01*
X159327000Y-117247000D01*
X159327000Y-118389915D01*
X159549039Y-118511904D01*
X159937423Y-118351041D01*
X160352389Y-117975134D01*
X160591914Y-117469041D01*
X160470629Y-117247000D01*
X159327000Y-117247000D01*
X159073000Y-117247000D01*
X157929371Y-117247000D01*
X157808086Y-117469041D01*
X146437259Y-117469041D01*
X146551961Y-117297378D01*
X146656672Y-116770959D01*
X157808086Y-116770959D01*
X157929371Y-116993000D01*
X159073000Y-116993000D01*
X159073000Y-115850085D01*
X159327000Y-115850085D01*
X159327000Y-116993000D01*
X160470629Y-116993000D01*
X160591914Y-116770959D01*
X160352389Y-116264866D01*
X159937423Y-115888959D01*
X159549039Y-115728096D01*
X159327000Y-115850085D01*
X159073000Y-115850085D01*
X158850961Y-115728096D01*
X158462577Y-115888959D01*
X158047611Y-116264866D01*
X157808086Y-116770959D01*
X146656672Y-116770959D01*
X146665000Y-116729093D01*
X146665000Y-116670907D01*
X146551961Y-116102622D01*
X146315000Y-115747984D01*
X146315000Y-115307745D01*
X163471861Y-115307745D01*
X163545995Y-115553864D01*
X164083223Y-115746965D01*
X164653454Y-115719778D01*
X165054005Y-115553864D01*
X165128139Y-115307745D01*
X164300000Y-114479605D01*
X163471861Y-115307745D01*
X146315000Y-115307745D01*
X146315000Y-115090132D01*
X147321909Y-114083223D01*
X162853035Y-114083223D01*
X162880222Y-114653454D01*
X163046136Y-115054005D01*
X163292255Y-115128139D01*
X164120395Y-114300000D01*
X164479605Y-114300000D01*
X165307745Y-115128139D01*
X165553864Y-115054005D01*
X165746965Y-114516777D01*
X165719778Y-113946546D01*
X165553864Y-113545995D01*
X165307745Y-113471861D01*
X164479605Y-114300000D01*
X164120395Y-114300000D01*
X163292255Y-113471861D01*
X163046136Y-113545995D01*
X162853035Y-114083223D01*
X147321909Y-114083223D01*
X147757692Y-113647440D01*
X148400000Y-113647440D01*
X148635317Y-113603162D01*
X148851441Y-113464090D01*
X148996431Y-113251890D01*
X149047440Y-113000000D01*
X149047440Y-112907745D01*
X151371861Y-112907745D01*
X151445995Y-113153864D01*
X151983223Y-113346965D01*
X152553454Y-113319778D01*
X152954005Y-113153864D01*
X153028139Y-112907745D01*
X152200000Y-112079605D01*
X151371861Y-112907745D01*
X149047440Y-112907745D01*
X149047440Y-111683223D01*
X150753035Y-111683223D01*
X150780222Y-112253454D01*
X150946136Y-112654005D01*
X151192255Y-112728139D01*
X152020395Y-111900000D01*
X152379605Y-111900000D01*
X153207745Y-112728139D01*
X153453864Y-112654005D01*
X153646965Y-112116777D01*
X153619778Y-111546546D01*
X153453864Y-111145995D01*
X153207745Y-111071861D01*
X152379605Y-111900000D01*
X152020395Y-111900000D01*
X151192255Y-111071861D01*
X150946136Y-111145995D01*
X150753035Y-111683223D01*
X149047440Y-111683223D01*
X149047440Y-111400000D01*
X149003162Y-111164683D01*
X148864090Y-110948559D01*
X148781687Y-110892255D01*
X151371861Y-110892255D01*
X152200000Y-111720395D01*
X153028139Y-110892255D01*
X152954005Y-110646136D01*
X152416777Y-110453035D01*
X151846546Y-110480222D01*
X151445995Y-110646136D01*
X151371861Y-110892255D01*
X148781687Y-110892255D01*
X148651890Y-110803569D01*
X148546959Y-110782320D01*
X148815824Y-110513923D01*
X148859912Y-110407745D01*
X154971861Y-110407745D01*
X155045995Y-110653864D01*
X155583223Y-110846965D01*
X156153454Y-110819778D01*
X156554005Y-110653864D01*
X156628139Y-110407745D01*
X155800000Y-109579605D01*
X154971861Y-110407745D01*
X148859912Y-110407745D01*
X149034750Y-109986691D01*
X149035248Y-109415813D01*
X148939144Y-109183223D01*
X154353035Y-109183223D01*
X154380222Y-109753454D01*
X154546136Y-110154005D01*
X154792255Y-110228139D01*
X155620395Y-109400000D01*
X155979605Y-109400000D01*
X156807745Y-110228139D01*
X157053864Y-110154005D01*
X157246965Y-109616777D01*
X157219778Y-109046546D01*
X157053864Y-108645995D01*
X156807745Y-108571861D01*
X155979605Y-109400000D01*
X155620395Y-109400000D01*
X154792255Y-108571861D01*
X154546136Y-108645995D01*
X154353035Y-109183223D01*
X148939144Y-109183223D01*
X148817243Y-108888200D01*
X148413923Y-108484176D01*
X148192553Y-108392255D01*
X154971861Y-108392255D01*
X155800000Y-109220395D01*
X156628139Y-108392255D01*
X156554005Y-108146136D01*
X156016777Y-107953035D01*
X155446546Y-107980222D01*
X155045995Y-108146136D01*
X154971861Y-108392255D01*
X148192553Y-108392255D01*
X147886691Y-108265250D01*
X147315813Y-108264752D01*
X146788200Y-108482757D01*
X146384176Y-108886077D01*
X146165250Y-109413309D01*
X146164752Y-109984187D01*
X146382757Y-110511800D01*
X146651072Y-110780583D01*
X146564683Y-110796838D01*
X146348559Y-110935910D01*
X146203569Y-111148110D01*
X146152560Y-111400000D01*
X146152560Y-112042308D01*
X144377434Y-113817434D01*
X144131397Y-114185654D01*
X144045000Y-114620000D01*
X144045000Y-115747984D01*
X143910000Y-115950026D01*
X143775000Y-115747984D01*
X143775000Y-114940000D01*
X143688603Y-114505654D01*
X143442566Y-114137434D01*
X142202566Y-112897434D01*
X142136118Y-112853035D01*
X141834346Y-112651397D01*
X141400000Y-112565000D01*
X131370133Y-112565000D01*
X130375000Y-111569868D01*
X130375000Y-111152016D01*
X130510000Y-110949974D01*
X130729946Y-111279147D01*
X131211715Y-111601054D01*
X131780000Y-111714093D01*
X132348285Y-111601054D01*
X132830054Y-111279147D01*
X133151961Y-110797378D01*
X133265000Y-110229093D01*
X133265000Y-110170907D01*
X133151961Y-109602622D01*
X132915000Y-109247984D01*
X132915000Y-107614397D01*
X133115824Y-107413923D01*
X133334750Y-106886691D01*
X133335248Y-106315813D01*
X133117243Y-105788200D01*
X132714746Y-105385000D01*
X139128808Y-105385000D01*
X139235910Y-105551441D01*
X139448110Y-105696431D01*
X139700000Y-105747440D01*
X141400000Y-105747440D01*
X141635317Y-105703162D01*
X141851441Y-105564090D01*
X141996431Y-105351890D01*
X142010086Y-105284459D01*
X142039946Y-105329147D01*
X142521715Y-105651054D01*
X143090000Y-105764093D01*
X143658285Y-105651054D01*
X143906803Y-105485000D01*
X146329868Y-105485000D01*
X147847434Y-107002566D01*
X148215654Y-107248603D01*
X148650000Y-107335000D01*
X158165000Y-107335000D01*
X158165000Y-108505568D01*
X157984176Y-108686077D01*
X157765250Y-109213309D01*
X157764752Y-109784187D01*
X157982757Y-110311800D01*
X158386077Y-110715824D01*
X158913309Y-110934750D01*
X159484187Y-110935248D01*
X160011800Y-110717243D01*
X160415824Y-110313923D01*
X160634750Y-109786691D01*
X160635248Y-109215813D01*
X160560538Y-109035000D01*
X162429868Y-109035000D01*
X163165000Y-109770132D01*
X163165000Y-110460982D01*
X163048559Y-110535910D01*
X162903569Y-110748110D01*
X162852560Y-111000000D01*
X162852560Y-112600000D01*
X162896838Y-112835317D01*
X163035910Y-113051441D01*
X163248110Y-113196431D01*
X163486201Y-113244646D01*
X163471861Y-113292255D01*
X164300000Y-114120395D01*
X165128139Y-113292255D01*
X165113855Y-113244833D01*
X165335317Y-113203162D01*
X165551441Y-113064090D01*
X165696431Y-112851890D01*
X165747440Y-112600000D01*
X165747440Y-111000000D01*
X165703162Y-110764683D01*
X165564090Y-110548559D01*
X165435000Y-110460356D01*
X165435000Y-109300000D01*
X165348603Y-108865654D01*
X165102566Y-108497434D01*
X163702566Y-107097434D01*
X163642652Y-107057401D01*
X163334346Y-106851397D01*
X162900000Y-106765000D01*
X160619186Y-106765000D01*
X160734750Y-106486691D01*
X160735248Y-105915813D01*
X160517243Y-105388200D01*
X160113923Y-104984176D01*
X159586691Y-104765250D01*
X159015813Y-104764752D01*
X158488200Y-104982757D01*
X158405813Y-105065000D01*
X156940132Y-105065000D01*
X160570132Y-101435000D01*
X163950000Y-101435000D01*
X164384346Y-101348603D01*
X164752566Y-101102566D01*
X165182566Y-100672566D01*
X165274485Y-100535000D01*
X165428603Y-100304346D01*
X165515000Y-99870000D01*
X165515000Y-96262767D01*
X165650000Y-96060725D01*
X165785000Y-96262767D01*
X165785000Y-105323272D01*
X165566120Y-105650849D01*
X165456887Y-106200000D01*
X165566120Y-106749151D01*
X165877189Y-107214698D01*
X166342736Y-107525767D01*
X166447839Y-107546673D01*
X172952174Y-114854597D01*
X172978855Y-114874761D01*
X172997434Y-114902566D01*
X173154640Y-115007608D01*
X173305484Y-115121606D01*
X173337849Y-115130024D01*
X173365654Y-115148603D01*
X173551101Y-115185491D01*
X173734078Y-115233083D01*
X173767198Y-115228475D01*
X173800000Y-115235000D01*
X181400000Y-115235000D01*
X181834346Y-115148603D01*
X182202566Y-114902566D01*
X186302566Y-110802566D01*
X187302567Y-109802566D01*
X187548604Y-109434345D01*
X187635000Y-109000000D01*
X187635000Y-104903222D01*
X187635317Y-104903162D01*
X187851441Y-104764090D01*
X187996431Y-104551890D01*
X188047440Y-104300000D01*
X188047440Y-102500000D01*
X188003162Y-102264683D01*
X187864090Y-102048559D01*
X187651890Y-101903569D01*
X187600854Y-101893234D01*
X187737966Y-101767576D01*
X187991046Y-101224742D01*
X187870997Y-100987000D01*
X186627000Y-100987000D01*
X186627000Y-101007000D01*
X186373000Y-101007000D01*
X186373000Y-100987000D01*
X185129003Y-100987000D01*
X185008954Y-101224742D01*
X185262034Y-101767576D01*
X185396538Y-101890844D01*
X185364683Y-101896838D01*
X185148559Y-102035910D01*
X185003569Y-102248110D01*
X184952560Y-102500000D01*
X184952560Y-104300000D01*
X184996838Y-104535317D01*
X185135910Y-104751441D01*
X185348110Y-104896431D01*
X185365000Y-104899851D01*
X185365000Y-108529867D01*
X184697434Y-109197434D01*
X180929868Y-112965000D01*
X174309252Y-112965000D01*
X168365765Y-106287216D01*
X168383113Y-106200000D01*
X168273880Y-105650849D01*
X168055000Y-105323272D01*
X168055000Y-96262767D01*
X168190000Y-96060725D01*
X168325000Y-96262767D01*
X168325000Y-104160000D01*
X168411397Y-104594346D01*
X168647327Y-104947440D01*
X168657434Y-104962566D01*
X174502560Y-110807692D01*
X174502560Y-111550000D01*
X174546838Y-111785317D01*
X174685910Y-112001441D01*
X174898110Y-112146431D01*
X175150000Y-112197440D01*
X176850000Y-112197440D01*
X177085317Y-112153162D01*
X177301441Y-112014090D01*
X177446431Y-111801890D01*
X177468301Y-111693893D01*
X177773076Y-111971645D01*
X178183110Y-112141476D01*
X178413000Y-112020155D01*
X178413000Y-110827000D01*
X178667000Y-110827000D01*
X178667000Y-112020155D01*
X178896890Y-112141476D01*
X179306924Y-111971645D01*
X179735183Y-111581358D01*
X179810000Y-111422046D01*
X179884817Y-111581358D01*
X180313076Y-111971645D01*
X180723110Y-112141476D01*
X180953000Y-112020155D01*
X180953000Y-110827000D01*
X181207000Y-110827000D01*
X181207000Y-112020155D01*
X181436890Y-112141476D01*
X181846924Y-111971645D01*
X182275183Y-111581358D01*
X182521486Y-111056892D01*
X182400819Y-110827000D01*
X181207000Y-110827000D01*
X180953000Y-110827000D01*
X178667000Y-110827000D01*
X178413000Y-110827000D01*
X178393000Y-110827000D01*
X178393000Y-110573000D01*
X178413000Y-110573000D01*
X178413000Y-109379845D01*
X178667000Y-109379845D01*
X178667000Y-110573000D01*
X180953000Y-110573000D01*
X180953000Y-109379845D01*
X181207000Y-109379845D01*
X181207000Y-110573000D01*
X182400819Y-110573000D01*
X182521486Y-110343108D01*
X182275183Y-109818642D01*
X181846924Y-109428355D01*
X181436890Y-109258524D01*
X181207000Y-109379845D01*
X180953000Y-109379845D01*
X180723110Y-109258524D01*
X180313076Y-109428355D01*
X179884817Y-109818642D01*
X179810000Y-109977954D01*
X179735183Y-109818642D01*
X179306924Y-109428355D01*
X178896890Y-109258524D01*
X178667000Y-109379845D01*
X178413000Y-109379845D01*
X178183110Y-109258524D01*
X177773076Y-109428355D01*
X177470063Y-109704501D01*
X177453162Y-109614683D01*
X177314090Y-109398559D01*
X177101890Y-109253569D01*
X176850000Y-109202560D01*
X176107692Y-109202560D01*
X174498081Y-107592949D01*
X174700000Y-107633113D01*
X175249151Y-107523880D01*
X175576728Y-107305000D01*
X177625446Y-107305000D01*
X177736077Y-107415824D01*
X178263309Y-107634750D01*
X178834187Y-107635248D01*
X179361800Y-107417243D01*
X179765824Y-107013923D01*
X179984750Y-106486691D01*
X179985248Y-105915813D01*
X179767243Y-105388200D01*
X179363923Y-104984176D01*
X178836691Y-104765250D01*
X178265813Y-104764752D01*
X177738200Y-104982757D01*
X177685866Y-105035000D01*
X175576728Y-105035000D01*
X175249151Y-104816120D01*
X174967771Y-104760150D01*
X173135000Y-102689798D01*
X173135000Y-96262767D01*
X173270000Y-96060725D01*
X173405000Y-96262767D01*
X173405000Y-97926754D01*
X173265250Y-98263309D01*
X173264752Y-98834187D01*
X173482757Y-99361800D01*
X173886077Y-99765824D01*
X174413309Y-99984750D01*
X174984187Y-99985248D01*
X175511800Y-99767243D01*
X175915824Y-99363923D01*
X176096402Y-98929041D01*
X177158086Y-98929041D01*
X177397611Y-99435134D01*
X177812577Y-99811041D01*
X178200961Y-99971904D01*
X178423000Y-99849915D01*
X178423000Y-98707000D01*
X178677000Y-98707000D01*
X178677000Y-99849915D01*
X178899039Y-99971904D01*
X179287423Y-99811041D01*
X179702389Y-99435134D01*
X179941914Y-98929041D01*
X179820629Y-98707000D01*
X178677000Y-98707000D01*
X178423000Y-98707000D01*
X177279371Y-98707000D01*
X177158086Y-98929041D01*
X176096402Y-98929041D01*
X176134750Y-98836691D01*
X176135248Y-98265813D01*
X176120847Y-98230959D01*
X177158086Y-98230959D01*
X177279371Y-98453000D01*
X178423000Y-98453000D01*
X178423000Y-97310085D01*
X178677000Y-97310085D01*
X178677000Y-98453000D01*
X179820629Y-98453000D01*
X179941914Y-98230959D01*
X179702389Y-97724866D01*
X179287423Y-97348959D01*
X178899039Y-97188096D01*
X178677000Y-97310085D01*
X178423000Y-97310085D01*
X178200961Y-97188096D01*
X177812577Y-97348959D01*
X177397611Y-97724866D01*
X177158086Y-98230959D01*
X176120847Y-98230959D01*
X175917243Y-97738200D01*
X175675000Y-97495534D01*
X175675000Y-96262767D01*
X175865767Y-95977264D01*
X175975000Y-95428113D01*
X175975000Y-95371887D01*
X175865767Y-94822736D01*
X175675000Y-94537233D01*
X175675000Y-92440000D01*
X175588604Y-92005655D01*
X175342567Y-91637434D01*
X175302566Y-91597434D01*
X174934346Y-91351397D01*
X174500000Y-91265000D01*
X135875761Y-91265000D01*
X136085777Y-91178223D01*
X136476850Y-90787833D01*
X136688758Y-90277501D01*
X136689240Y-89724923D01*
X136478223Y-89214223D01*
X136435000Y-89170924D01*
X136435000Y-88100000D01*
X136365756Y-87751887D01*
X157865000Y-87751887D01*
X157865000Y-87808113D01*
X157974233Y-88357264D01*
X158285302Y-88822811D01*
X158750849Y-89133880D01*
X159300000Y-89243113D01*
X159849151Y-89133880D01*
X160314698Y-88822811D01*
X160570000Y-88440725D01*
X160825302Y-88822811D01*
X161290849Y-89133880D01*
X161840000Y-89243113D01*
X162389151Y-89133880D01*
X162854698Y-88822811D01*
X163110000Y-88440725D01*
X163365302Y-88822811D01*
X163830849Y-89133880D01*
X164380000Y-89243113D01*
X164929151Y-89133880D01*
X165394698Y-88822811D01*
X165664986Y-88418297D01*
X165767611Y-88635134D01*
X166182577Y-89011041D01*
X166570961Y-89171904D01*
X166793000Y-89049915D01*
X166793000Y-87907000D01*
X166773000Y-87907000D01*
X166773000Y-87653000D01*
X166793000Y-87653000D01*
X166793000Y-86510085D01*
X167047000Y-86510085D01*
X167047000Y-87653000D01*
X167067000Y-87653000D01*
X167067000Y-87907000D01*
X167047000Y-87907000D01*
X167047000Y-89049915D01*
X167269039Y-89171904D01*
X167657423Y-89011041D01*
X168072389Y-88635134D01*
X168175014Y-88418297D01*
X168445302Y-88822811D01*
X168910849Y-89133880D01*
X169460000Y-89243113D01*
X170009151Y-89133880D01*
X170474698Y-88822811D01*
X170730000Y-88440725D01*
X170985302Y-88822811D01*
X171450849Y-89133880D01*
X172000000Y-89243113D01*
X172549151Y-89133880D01*
X173014698Y-88822811D01*
X173270000Y-88440725D01*
X173525302Y-88822811D01*
X173990849Y-89133880D01*
X174540000Y-89243113D01*
X175089151Y-89133880D01*
X175439176Y-88900000D01*
X182452560Y-88900000D01*
X182452560Y-91500000D01*
X182496838Y-91735317D01*
X182635910Y-91951441D01*
X182848110Y-92096431D01*
X182965000Y-92120102D01*
X182965000Y-98240000D01*
X183051397Y-98674346D01*
X183245606Y-98965000D01*
X183297434Y-99042566D01*
X183377434Y-99122566D01*
X183745654Y-99368603D01*
X184180000Y-99455000D01*
X185443803Y-99455000D01*
X185652582Y-99594501D01*
X185262034Y-99952424D01*
X185008954Y-100495258D01*
X185129003Y-100733000D01*
X186373000Y-100733000D01*
X186373000Y-100713000D01*
X186627000Y-100713000D01*
X186627000Y-100733000D01*
X187870997Y-100733000D01*
X187991046Y-100495258D01*
X187737966Y-99952424D01*
X187347418Y-99594501D01*
X187585409Y-99435481D01*
X187918155Y-98937491D01*
X188035000Y-98350072D01*
X188035000Y-98289928D01*
X187918155Y-97702509D01*
X187585409Y-97204519D01*
X187087419Y-96871773D01*
X186500000Y-96754928D01*
X185912581Y-96871773D01*
X185443803Y-97185000D01*
X185235000Y-97185000D01*
X185235000Y-92122038D01*
X185335317Y-92103162D01*
X185551441Y-91964090D01*
X185665349Y-91797380D01*
X186131645Y-92059144D01*
X186259566Y-92090124D01*
X186513000Y-91970777D01*
X186513000Y-90327000D01*
X186767000Y-90327000D01*
X186767000Y-91970777D01*
X187020434Y-92090124D01*
X187148355Y-92059144D01*
X187706317Y-91745922D01*
X188101942Y-91243020D01*
X188275000Y-90627000D01*
X188275000Y-90327000D01*
X186767000Y-90327000D01*
X186513000Y-90327000D01*
X186493000Y-90327000D01*
X186493000Y-90073000D01*
X186513000Y-90073000D01*
X186513000Y-88429223D01*
X186767000Y-88429223D01*
X186767000Y-90073000D01*
X188275000Y-90073000D01*
X188275000Y-89773000D01*
X188101942Y-89156980D01*
X187706317Y-88654078D01*
X187148355Y-88340856D01*
X187020434Y-88309876D01*
X186767000Y-88429223D01*
X186513000Y-88429223D01*
X186259566Y-88309876D01*
X186131645Y-88340856D01*
X185663789Y-88603495D01*
X185564090Y-88448559D01*
X185351890Y-88303569D01*
X185100000Y-88252560D01*
X183100000Y-88252560D01*
X182864683Y-88296838D01*
X182648559Y-88435910D01*
X182503569Y-88648110D01*
X182452560Y-88900000D01*
X175439176Y-88900000D01*
X175554698Y-88822811D01*
X175865767Y-88357264D01*
X175975000Y-87808113D01*
X175975000Y-87751887D01*
X175865767Y-87202736D01*
X175554698Y-86737189D01*
X175089151Y-86426120D01*
X174540000Y-86316887D01*
X173990849Y-86426120D01*
X173525302Y-86737189D01*
X173270000Y-87119275D01*
X173014698Y-86737189D01*
X172549151Y-86426120D01*
X172000000Y-86316887D01*
X171450849Y-86426120D01*
X170985302Y-86737189D01*
X170730000Y-87119275D01*
X170474698Y-86737189D01*
X170009151Y-86426120D01*
X169460000Y-86316887D01*
X168910849Y-86426120D01*
X168445302Y-86737189D01*
X168175014Y-87141703D01*
X168072389Y-86924866D01*
X167657423Y-86548959D01*
X167269039Y-86388096D01*
X167047000Y-86510085D01*
X166793000Y-86510085D01*
X166570961Y-86388096D01*
X166182577Y-86548959D01*
X165767611Y-86924866D01*
X165664986Y-87141703D01*
X165394698Y-86737189D01*
X164929151Y-86426120D01*
X164380000Y-86316887D01*
X163830849Y-86426120D01*
X163365302Y-86737189D01*
X163110000Y-87119275D01*
X162854698Y-86737189D01*
X162389151Y-86426120D01*
X161840000Y-86316887D01*
X161290849Y-86426120D01*
X160825302Y-86737189D01*
X160570000Y-87119275D01*
X160314698Y-86737189D01*
X159849151Y-86426120D01*
X159300000Y-86316887D01*
X158750849Y-86426120D01*
X158285302Y-86737189D01*
X157974233Y-87202736D01*
X157865000Y-87751887D01*
X136365756Y-87751887D01*
X136348604Y-87665655D01*
X136102567Y-87297434D01*
X133932132Y-85127000D01*
X190873000Y-85127000D01*
X190873000Y-119873000D01*
X121127000Y-119873000D01*
X121127000Y-116985750D01*
X138615000Y-116985750D01*
X138615000Y-117676309D01*
X138711673Y-117909698D01*
X138890301Y-118088327D01*
X139123690Y-118185000D01*
X139814250Y-118185000D01*
X139973000Y-118026250D01*
X139973000Y-116827000D01*
X138773750Y-116827000D01*
X138615000Y-116985750D01*
X121127000Y-116985750D01*
X121127000Y-115723691D01*
X138615000Y-115723691D01*
X138615000Y-116414250D01*
X138773750Y-116573000D01*
X139973000Y-116573000D01*
X139973000Y-115373750D01*
X139814250Y-115215000D01*
X139123690Y-115215000D01*
X138890301Y-115311673D01*
X138711673Y-115490302D01*
X138615000Y-115723691D01*
X121127000Y-115723691D01*
X121127000Y-110485750D01*
X125215000Y-110485750D01*
X125215000Y-111176309D01*
X125311673Y-111409698D01*
X125490301Y-111588327D01*
X125723690Y-111685000D01*
X126414250Y-111685000D01*
X126573000Y-111526250D01*
X126573000Y-110327000D01*
X125373750Y-110327000D01*
X125215000Y-110485750D01*
X121127000Y-110485750D01*
X121127000Y-109223691D01*
X125215000Y-109223691D01*
X125215000Y-109914250D01*
X125373750Y-110073000D01*
X126573000Y-110073000D01*
X126573000Y-108873750D01*
X126414250Y-108715000D01*
X125723690Y-108715000D01*
X125490301Y-108811673D01*
X125311673Y-108990302D01*
X125215000Y-109223691D01*
X121127000Y-109223691D01*
X121127000Y-106969041D01*
X125108086Y-106969041D01*
X125347611Y-107475134D01*
X125762577Y-107851041D01*
X126150961Y-108011904D01*
X126373000Y-107889915D01*
X126373000Y-106747000D01*
X126627000Y-106747000D01*
X126627000Y-107889915D01*
X126849039Y-108011904D01*
X127237423Y-107851041D01*
X127652389Y-107475134D01*
X127891914Y-106969041D01*
X127770629Y-106747000D01*
X126627000Y-106747000D01*
X126373000Y-106747000D01*
X125229371Y-106747000D01*
X125108086Y-106969041D01*
X121127000Y-106969041D01*
X121127000Y-106270959D01*
X125108086Y-106270959D01*
X125229371Y-106493000D01*
X126373000Y-106493000D01*
X126373000Y-105350085D01*
X126150961Y-105228096D01*
X125762577Y-105388959D01*
X125347611Y-105764866D01*
X125108086Y-106270959D01*
X121127000Y-106270959D01*
X121127000Y-85127000D01*
X123667868Y-85127000D01*
X122197434Y-86597434D01*
G36*
X125697434Y-88497434D02*
X125451397Y-88865654D01*
X125365000Y-89300000D01*
X125365000Y-94200000D01*
X125451397Y-94634346D01*
X125603911Y-94862599D01*
X125697434Y-95002566D01*
X128265000Y-97570132D01*
X128265000Y-97845000D01*
X127374641Y-97845000D01*
X127313923Y-97784176D01*
X126786691Y-97565250D01*
X126215813Y-97564752D01*
X125688200Y-97782757D01*
X125284176Y-98186077D01*
X125065250Y-98713309D01*
X125064752Y-99284187D01*
X125282757Y-99811800D01*
X125686077Y-100215824D01*
X126213309Y-100434750D01*
X126784187Y-100435248D01*
X127311800Y-100217243D01*
X127414221Y-100115000D01*
X131023272Y-100115000D01*
X131350849Y-100333880D01*
X131900000Y-100443113D01*
X132449151Y-100333880D01*
X132914698Y-100022811D01*
X133225767Y-99557264D01*
X133335000Y-99008113D01*
X133335000Y-98951887D01*
X133225767Y-98402736D01*
X132914698Y-97937189D01*
X132449151Y-97626120D01*
X131900000Y-97516887D01*
X131350849Y-97626120D01*
X131023272Y-97845000D01*
X130535000Y-97845000D01*
X130535000Y-97100000D01*
X130448603Y-96665654D01*
X130202566Y-96297434D01*
X127635000Y-93729868D01*
X127635000Y-89770132D01*
X128073575Y-89331557D01*
X127911242Y-89722499D01*
X127910760Y-90275077D01*
X128121777Y-90785777D01*
X128165000Y-90829076D01*
X128165000Y-93300000D01*
X128251397Y-93734346D01*
X128386731Y-93936887D01*
X128497434Y-94102566D01*
X130697434Y-96302566D01*
X131065654Y-96548603D01*
X131500000Y-96635000D01*
X150265000Y-96635000D01*
X150265000Y-97255394D01*
X150184176Y-97336077D01*
X149965250Y-97863309D01*
X149964752Y-98434187D01*
X150182757Y-98961800D01*
X150586077Y-99365824D01*
X151113309Y-99584750D01*
X151684187Y-99585248D01*
X152211800Y-99367243D01*
X152615824Y-98963923D01*
X152834750Y-98436691D01*
X152835248Y-97865813D01*
X152617243Y-97338200D01*
X152535000Y-97255813D01*
X152535000Y-96535000D01*
X157960982Y-96535000D01*
X158035910Y-96651441D01*
X158248110Y-96796431D01*
X158429401Y-96833143D01*
X157977189Y-97135302D01*
X157666120Y-97600849D01*
X157577766Y-98045034D01*
X155432704Y-100389947D01*
X155250849Y-100426120D01*
X154785302Y-100737189D01*
X154474233Y-101202736D01*
X154365000Y-101751887D01*
X154365000Y-101808113D01*
X154474233Y-102357264D01*
X154785302Y-102822811D01*
X155250849Y-103133880D01*
X155306753Y-103145000D01*
X153335000Y-103145000D01*
X153335000Y-102300000D01*
X153248603Y-101865654D01*
X153002566Y-101497434D01*
X152102566Y-100597434D01*
X152008148Y-100534346D01*
X151734346Y-100351397D01*
X151300000Y-100265000D01*
X148777204Y-100265000D01*
X148527363Y-100014722D01*
X147926648Y-99765284D01*
X147276205Y-99764716D01*
X146675057Y-100013106D01*
X146635000Y-100053093D01*
X146635000Y-99444606D01*
X146715824Y-99363923D01*
X146934750Y-98836691D01*
X146935248Y-98265813D01*
X146717243Y-97738200D01*
X146313923Y-97334176D01*
X145786691Y-97115250D01*
X145215813Y-97114752D01*
X144688200Y-97332757D01*
X144284176Y-97736077D01*
X144065250Y-98263309D01*
X144064752Y-98834187D01*
X144282757Y-99361800D01*
X144365000Y-99444187D01*
X144365000Y-103050000D01*
X144397821Y-103215000D01*
X144169552Y-103215000D01*
X144140054Y-103170853D01*
X143658285Y-102848946D01*
X143090000Y-102735907D01*
X142521715Y-102848946D01*
X142039946Y-103170853D01*
X142012150Y-103212452D01*
X142003162Y-103164683D01*
X141864090Y-102948559D01*
X141651890Y-102803569D01*
X141400000Y-102752560D01*
X139700000Y-102752560D01*
X139464683Y-102796838D01*
X139248559Y-102935910D01*
X139126192Y-103115000D01*
X139015000Y-103115000D01*
X139015000Y-99426728D01*
X139233880Y-99099151D01*
X139343113Y-98550000D01*
X139233880Y-98000849D01*
X138922811Y-97535302D01*
X138457264Y-97224233D01*
X137908113Y-97115000D01*
X137851887Y-97115000D01*
X137302736Y-97224233D01*
X136837189Y-97535302D01*
X136526120Y-98000849D01*
X136416887Y-98550000D01*
X136526120Y-99099151D01*
X136745000Y-99426728D01*
X136745000Y-103115000D01*
X127620132Y-103115000D01*
X124135000Y-99629868D01*
X124135000Y-87870132D01*
X125170132Y-86835000D01*
X127359868Y-86835000D01*
X125697434Y-88497434D01*
X125697434Y-88497434D01*
G37*
X125697434Y-88497434D02*
X125451397Y-88865654D01*
X125365000Y-89300000D01*
X125365000Y-94200000D01*
X125451397Y-94634346D01*
X125603911Y-94862599D01*
X125697434Y-95002566D01*
X128265000Y-97570132D01*
X128265000Y-97845000D01*
X127374641Y-97845000D01*
X127313923Y-97784176D01*
X126786691Y-97565250D01*
X126215813Y-97564752D01*
X125688200Y-97782757D01*
X125284176Y-98186077D01*
X125065250Y-98713309D01*
X125064752Y-99284187D01*
X125282757Y-99811800D01*
X125686077Y-100215824D01*
X126213309Y-100434750D01*
X126784187Y-100435248D01*
X127311800Y-100217243D01*
X127414221Y-100115000D01*
X131023272Y-100115000D01*
X131350849Y-100333880D01*
X131900000Y-100443113D01*
X132449151Y-100333880D01*
X132914698Y-100022811D01*
X133225767Y-99557264D01*
X133335000Y-99008113D01*
X133335000Y-98951887D01*
X133225767Y-98402736D01*
X132914698Y-97937189D01*
X132449151Y-97626120D01*
X131900000Y-97516887D01*
X131350849Y-97626120D01*
X131023272Y-97845000D01*
X130535000Y-97845000D01*
X130535000Y-97100000D01*
X130448603Y-96665654D01*
X130202566Y-96297434D01*
X127635000Y-93729868D01*
X127635000Y-89770132D01*
X128073575Y-89331557D01*
X127911242Y-89722499D01*
X127910760Y-90275077D01*
X128121777Y-90785777D01*
X128165000Y-90829076D01*
X128165000Y-93300000D01*
X128251397Y-93734346D01*
X128386731Y-93936887D01*
X128497434Y-94102566D01*
X130697434Y-96302566D01*
X131065654Y-96548603D01*
X131500000Y-96635000D01*
X150265000Y-96635000D01*
X150265000Y-97255394D01*
X150184176Y-97336077D01*
X149965250Y-97863309D01*
X149964752Y-98434187D01*
X150182757Y-98961800D01*
X150586077Y-99365824D01*
X151113309Y-99584750D01*
X151684187Y-99585248D01*
X152211800Y-99367243D01*
X152615824Y-98963923D01*
X152834750Y-98436691D01*
X152835248Y-97865813D01*
X152617243Y-97338200D01*
X152535000Y-97255813D01*
X152535000Y-96535000D01*
X157960982Y-96535000D01*
X158035910Y-96651441D01*
X158248110Y-96796431D01*
X158429401Y-96833143D01*
X157977189Y-97135302D01*
X157666120Y-97600849D01*
X157577766Y-98045034D01*
X155432704Y-100389947D01*
X155250849Y-100426120D01*
X154785302Y-100737189D01*
X154474233Y-101202736D01*
X154365000Y-101751887D01*
X154365000Y-101808113D01*
X154474233Y-102357264D01*
X154785302Y-102822811D01*
X155250849Y-103133880D01*
X155306753Y-103145000D01*
X153335000Y-103145000D01*
X153335000Y-102300000D01*
X153248603Y-101865654D01*
X153002566Y-101497434D01*
X152102566Y-100597434D01*
X152008148Y-100534346D01*
X151734346Y-100351397D01*
X151300000Y-100265000D01*
X148777204Y-100265000D01*
X148527363Y-100014722D01*
X147926648Y-99765284D01*
X147276205Y-99764716D01*
X146675057Y-100013106D01*
X146635000Y-100053093D01*
X146635000Y-99444606D01*
X146715824Y-99363923D01*
X146934750Y-98836691D01*
X146935248Y-98265813D01*
X146717243Y-97738200D01*
X146313923Y-97334176D01*
X145786691Y-97115250D01*
X145215813Y-97114752D01*
X144688200Y-97332757D01*
X144284176Y-97736077D01*
X144065250Y-98263309D01*
X144064752Y-98834187D01*
X144282757Y-99361800D01*
X144365000Y-99444187D01*
X144365000Y-103050000D01*
X144397821Y-103215000D01*
X144169552Y-103215000D01*
X144140054Y-103170853D01*
X143658285Y-102848946D01*
X143090000Y-102735907D01*
X142521715Y-102848946D01*
X142039946Y-103170853D01*
X142012150Y-103212452D01*
X142003162Y-103164683D01*
X141864090Y-102948559D01*
X141651890Y-102803569D01*
X141400000Y-102752560D01*
X139700000Y-102752560D01*
X139464683Y-102796838D01*
X139248559Y-102935910D01*
X139126192Y-103115000D01*
X139015000Y-103115000D01*
X139015000Y-99426728D01*
X139233880Y-99099151D01*
X139343113Y-98550000D01*
X139233880Y-98000849D01*
X138922811Y-97535302D01*
X138457264Y-97224233D01*
X137908113Y-97115000D01*
X137851887Y-97115000D01*
X137302736Y-97224233D01*
X136837189Y-97535302D01*
X136526120Y-98000849D01*
X136416887Y-98550000D01*
X136526120Y-99099151D01*
X136745000Y-99426728D01*
X136745000Y-103115000D01*
X127620132Y-103115000D01*
X124135000Y-99629868D01*
X124135000Y-87870132D01*
X125170132Y-86835000D01*
X127359868Y-86835000D01*
X125697434Y-88497434D01*
M02*
